<mxfile host="app.diagrams.net" agent="Mozilla/5.0 (Windows NT 10.0; Win64; x64) AppleWebKit/537.36 (KHTML, like Gecko) Chrome/136.0.0.0 Safari/537.36" version="27.0.6">
  <diagram name="Страница — 1" id="Gc-OCyASFoMNhAd_t_IS">
    <mxGraphModel dx="2194" dy="1143" grid="1" gridSize="10" guides="1" tooltips="1" connect="1" arrows="1" fold="1" page="1" pageScale="1" pageWidth="827" pageHeight="1169" math="0" shadow="0">
      <root>
        <mxCell id="0" />
        <mxCell id="1" parent="0" />
        <mxCell id="8SGfL8MuE-BGQFQ02nnn-9" value="Pool" style="swimlane;childLayout=stackLayout;resizeParent=1;resizeParentMax=0;startSize=20;horizontal=0;horizontalStack=1;" vertex="1" parent="1">
          <mxGeometry x="320" y="105" width="490" height="880" as="geometry" />
        </mxCell>
        <mxCell id="8SGfL8MuE-BGQFQ02nnn-10" value="Пользователь" style="swimlane;startSize=20;arcSize=15;" vertex="1" parent="8SGfL8MuE-BGQFQ02nnn-9">
          <mxGeometry x="20" width="220" height="880" as="geometry" />
        </mxCell>
        <mxCell id="8SGfL8MuE-BGQFQ02nnn-24" style="edgeStyle=orthogonalEdgeStyle;rounded=0;orthogonalLoop=1;jettySize=auto;html=1;" edge="1" parent="8SGfL8MuE-BGQFQ02nnn-10" source="8SGfL8MuE-BGQFQ02nnn-13" target="8SGfL8MuE-BGQFQ02nnn-15">
          <mxGeometry relative="1" as="geometry" />
        </mxCell>
        <mxCell id="8SGfL8MuE-BGQFQ02nnn-13" value="" style="ellipse;fillColor=strokeColor;html=1;" vertex="1" parent="8SGfL8MuE-BGQFQ02nnn-10">
          <mxGeometry x="90" y="35" width="30" height="30" as="geometry" />
        </mxCell>
        <mxCell id="8SGfL8MuE-BGQFQ02nnn-30" style="edgeStyle=orthogonalEdgeStyle;rounded=0;orthogonalLoop=1;jettySize=auto;html=1;entryX=0.5;entryY=0;entryDx=0;entryDy=0;" edge="1" parent="8SGfL8MuE-BGQFQ02nnn-10" source="8SGfL8MuE-BGQFQ02nnn-15" target="8SGfL8MuE-BGQFQ02nnn-25">
          <mxGeometry relative="1" as="geometry" />
        </mxCell>
        <mxCell id="8SGfL8MuE-BGQFQ02nnn-15" value="Выбор фильма" style="rounded=1;whiteSpace=wrap;html=1;" vertex="1" parent="8SGfL8MuE-BGQFQ02nnn-10">
          <mxGeometry x="45" y="105" width="120" height="60" as="geometry" />
        </mxCell>
        <mxCell id="8SGfL8MuE-BGQFQ02nnn-28" style="edgeStyle=orthogonalEdgeStyle;rounded=0;orthogonalLoop=1;jettySize=auto;html=1;entryX=0.5;entryY=0;entryDx=0;entryDy=0;" edge="1" parent="8SGfL8MuE-BGQFQ02nnn-10" source="8SGfL8MuE-BGQFQ02nnn-25" target="8SGfL8MuE-BGQFQ02nnn-27">
          <mxGeometry relative="1" as="geometry" />
        </mxCell>
        <mxCell id="8SGfL8MuE-BGQFQ02nnn-25" value="Выбор сеанса" style="rounded=1;whiteSpace=wrap;html=1;" vertex="1" parent="8SGfL8MuE-BGQFQ02nnn-10">
          <mxGeometry x="45" y="225" width="120" height="60" as="geometry" />
        </mxCell>
        <mxCell id="8SGfL8MuE-BGQFQ02nnn-27" value="Выбор мест" style="rounded=1;whiteSpace=wrap;html=1;" vertex="1" parent="8SGfL8MuE-BGQFQ02nnn-10">
          <mxGeometry x="45" y="335" width="120" height="60" as="geometry" />
        </mxCell>
        <mxCell id="8SGfL8MuE-BGQFQ02nnn-38" value="Оплата" style="rounded=1;whiteSpace=wrap;html=1;" vertex="1" parent="8SGfL8MuE-BGQFQ02nnn-10">
          <mxGeometry x="50" y="565" width="120" height="60" as="geometry" />
        </mxCell>
        <mxCell id="8SGfL8MuE-BGQFQ02nnn-11" value="Система" style="swimlane;startSize=20;" vertex="1" parent="8SGfL8MuE-BGQFQ02nnn-9">
          <mxGeometry x="240" width="250" height="880" as="geometry" />
        </mxCell>
        <mxCell id="8SGfL8MuE-BGQFQ02nnn-31" value="" style="rhombus;" vertex="1" parent="8SGfL8MuE-BGQFQ02nnn-11">
          <mxGeometry x="95" y="500" width="30" height="30" as="geometry" />
        </mxCell>
        <mxCell id="8SGfL8MuE-BGQFQ02nnn-34" style="edgeStyle=orthogonalEdgeStyle;rounded=0;orthogonalLoop=1;jettySize=auto;html=1;entryX=0.5;entryY=0;entryDx=0;entryDy=0;" edge="1" parent="8SGfL8MuE-BGQFQ02nnn-11" source="8SGfL8MuE-BGQFQ02nnn-32" target="8SGfL8MuE-BGQFQ02nnn-31">
          <mxGeometry relative="1" as="geometry" />
        </mxCell>
        <mxCell id="8SGfL8MuE-BGQFQ02nnn-35" value="Доступен сеанс / место" style="edgeLabel;html=1;align=center;verticalAlign=middle;resizable=0;points=[];" vertex="1" connectable="0" parent="8SGfL8MuE-BGQFQ02nnn-34">
          <mxGeometry x="-0.1709" relative="1" as="geometry">
            <mxPoint as="offset" />
          </mxGeometry>
        </mxCell>
        <mxCell id="8SGfL8MuE-BGQFQ02nnn-32" value="Проверка доступности" style="rounded=1;whiteSpace=wrap;html=1;" vertex="1" parent="8SGfL8MuE-BGQFQ02nnn-11">
          <mxGeometry x="50" y="335" width="120" height="60" as="geometry" />
        </mxCell>
        <mxCell id="8SGfL8MuE-BGQFQ02nnn-50" style="edgeStyle=orthogonalEdgeStyle;rounded=0;orthogonalLoop=1;jettySize=auto;html=1;entryX=0.5;entryY=0;entryDx=0;entryDy=0;" edge="1" parent="8SGfL8MuE-BGQFQ02nnn-11" source="8SGfL8MuE-BGQFQ02nnn-46" target="8SGfL8MuE-BGQFQ02nnn-49">
          <mxGeometry relative="1" as="geometry" />
        </mxCell>
        <mxCell id="8SGfL8MuE-BGQFQ02nnn-46" value="Подтверждение" style="rounded=1;whiteSpace=wrap;html=1;" vertex="1" parent="8SGfL8MuE-BGQFQ02nnn-11">
          <mxGeometry x="50" y="665" width="120" height="60" as="geometry" />
        </mxCell>
        <mxCell id="8SGfL8MuE-BGQFQ02nnn-49" value="" style="ellipse;html=1;shape=endState;fillColor=strokeColor;" vertex="1" parent="8SGfL8MuE-BGQFQ02nnn-11">
          <mxGeometry x="95" y="805" width="30" height="30" as="geometry" />
        </mxCell>
        <mxCell id="8SGfL8MuE-BGQFQ02nnn-33" style="edgeStyle=orthogonalEdgeStyle;rounded=0;orthogonalLoop=1;jettySize=auto;html=1;entryX=0;entryY=0.5;entryDx=0;entryDy=0;" edge="1" parent="8SGfL8MuE-BGQFQ02nnn-9" source="8SGfL8MuE-BGQFQ02nnn-27" target="8SGfL8MuE-BGQFQ02nnn-32">
          <mxGeometry relative="1" as="geometry" />
        </mxCell>
        <mxCell id="8SGfL8MuE-BGQFQ02nnn-36" style="edgeStyle=orthogonalEdgeStyle;rounded=0;orthogonalLoop=1;jettySize=auto;html=1;entryX=0.5;entryY=1;entryDx=0;entryDy=0;" edge="1" parent="8SGfL8MuE-BGQFQ02nnn-9" source="8SGfL8MuE-BGQFQ02nnn-31" target="8SGfL8MuE-BGQFQ02nnn-27">
          <mxGeometry relative="1" as="geometry" />
        </mxCell>
        <mxCell id="8SGfL8MuE-BGQFQ02nnn-37" value="Нет" style="edgeLabel;html=1;align=center;verticalAlign=middle;resizable=0;points=[];" vertex="1" connectable="0" parent="8SGfL8MuE-BGQFQ02nnn-36">
          <mxGeometry x="-0.7307" y="-1" relative="1" as="geometry">
            <mxPoint as="offset" />
          </mxGeometry>
        </mxCell>
        <mxCell id="8SGfL8MuE-BGQFQ02nnn-43" style="edgeStyle=orthogonalEdgeStyle;rounded=0;orthogonalLoop=1;jettySize=auto;html=1;jumpStyle=none;entryX=1;entryY=0.5;entryDx=0;entryDy=0;" edge="1" parent="8SGfL8MuE-BGQFQ02nnn-9" source="8SGfL8MuE-BGQFQ02nnn-31" target="8SGfL8MuE-BGQFQ02nnn-38">
          <mxGeometry relative="1" as="geometry">
            <mxPoint x="430" y="595" as="targetPoint" />
            <Array as="points">
              <mxPoint x="420" y="515" />
              <mxPoint x="420" y="595" />
            </Array>
          </mxGeometry>
        </mxCell>
        <mxCell id="8SGfL8MuE-BGQFQ02nnn-45" value="Да" style="edgeLabel;html=1;align=center;verticalAlign=middle;resizable=0;points=[];" vertex="1" connectable="0" parent="8SGfL8MuE-BGQFQ02nnn-43">
          <mxGeometry x="-0.8527" y="2" relative="1" as="geometry">
            <mxPoint as="offset" />
          </mxGeometry>
        </mxCell>
        <mxCell id="8SGfL8MuE-BGQFQ02nnn-48" style="edgeStyle=orthogonalEdgeStyle;rounded=0;orthogonalLoop=1;jettySize=auto;html=1;entryX=0;entryY=0.5;entryDx=0;entryDy=0;" edge="1" parent="8SGfL8MuE-BGQFQ02nnn-9" source="8SGfL8MuE-BGQFQ02nnn-38" target="8SGfL8MuE-BGQFQ02nnn-46">
          <mxGeometry relative="1" as="geometry">
            <Array as="points">
              <mxPoint x="130" y="695" />
            </Array>
          </mxGeometry>
        </mxCell>
      </root>
    </mxGraphModel>
  </diagram>
</mxfile>
